<?xml version="1.0" encoding="UTF-8" standalone="no"?>
<svg
   xmlns:dc="http://purl.org/dc/elements/1.1/"
   xmlns:cc="http://creativecommons.org/ns#"
   xmlns:rdf="http://www.w3.org/1999/02/22-rdf-syntax-ns#"
   xmlns:svg="http://www.w3.org/2000/svg"
   xmlns="http://www.w3.org/2000/svg"
   xmlns:sodipodi="http://sodipodi.sourceforge.net/DTD/sodipodi-0.dtd"
   xmlns:inkscape="http://www.inkscape.org/namespaces/inkscape"
   width="200"
   height="200"
   viewBox="0 0 200 200"
   version="1.1"
   id="svg21"
   sodipodi:docname="bitbucket.svg"
   inkscape:version="0.92.4 5da689c313, 2019-01-14">
  <metadata
     id="metadata25">
    <rdf:RDF>
      <cc:Work
         rdf:about="">
        <dc:format>image/svg+xml</dc:format>
        <dc:type
           rdf:resource="http://purl.org/dc/dcmitype/StillImage" />
        <dc:title>9B400751-3294-48C2-A771-3D6A0BF17C4F</dc:title>
      </cc:Work>
    </rdf:RDF>
  </metadata>
  <sodipodi:namedview
     pagecolor="#ffffff"
     bordercolor="#666666"
     borderopacity="1"
     objecttolerance="10"
     gridtolerance="10"
     guidetolerance="10"
     inkscape:pageopacity="0"
     inkscape:pageshadow="2"
     inkscape:window-width="1920"
     inkscape:window-height="1024"
     id="namedview23"
     showgrid="false"
     inkscape:zoom="2.97995"
     inkscape:cx="55.250897"
     inkscape:cy="111.82342"
     inkscape:window-x="0"
     inkscape:window-y="28"
     inkscape:window-maximized="1"
     inkscape:current-layer="svg21" />
  <!-- Generator: sketchtool 51.1 (57501) - http://www.bohemiancoding.com/sketch -->
  <title
     id="title2">9B400751-3294-48C2-A771-3D6A0BF17C4F</title>
  <desc
     id="desc4">Created with sketchtool.</desc>
  <defs
     id="defs11">
    <linearGradient
       x1="13.870846"
       y1="6.9097533"
       x2="7.2522702"
       y2="13.879941"
       id="linearGradient-1"
       gradientTransform="scale(1.1717021,0.85345927)"
       gradientUnits="userSpaceOnUse">
      <stop
         stop-color="#0052CC"
         offset="18%"
         id="stop6" />
      <stop
         stop-color="#2684FF"
         offset="100%"
         id="stop8" />
    </linearGradient>
  </defs>
  <g
     id="Audit-Log-no-pagnination-filters"
     style="fill:none;fill-rule:evenodd;stroke:none;stroke-width:1"
     transform="matrix(12.5712,0,0,12.5712,-1.1592629,13.269104)">
    <g
       id="icons"
       transform="translate(-66,-197)">
      <g
         id="Bitbucket-icon-neutral"
         transform="translate(66,197)">
        <polygon
           id="Shape"
           points="5.5575,4.6347368 6.425,9.1491228 9.6875,9.1491228 10.475,4.6347368 " />
        <path
           d="M 0.75,0 C 0.60229113,-0.00187166 0.46129978,0.06052238 0.36484679,0.17044495 0.26839379,0.28036752 0.22635233,0.42656667 0.25,0.56982456 L 2.3725,13.228772 c 0.054587,0.319764 0.3349916,0.554858 0.665,0.557544 H 13.22 c 0.247696,0.0031 0.460386,-0.172393 0.5,-0.412632 L 15.8425,0.5722807 C 15.866741,0.42992008 15.826027,0.28428937 15.731171,0.17406706 15.636314,0.06384476 15.496916,1.8669196e-4 15.35,0 Z m 8.9375,9.1491228 h -3.25 l -0.88,-4.514386 h 4.9175 z"
           id="path14"
           inkscape:connector-curvature="0"
           style="fill:#2684FF;fill-rule:nonzero" />
        <path
           d="M 15.1675,4.6347368 H 10.475 l -0.7875,4.514386 h -3.25 L 2.6,13.626667 c 0.1216318,0.10333 0.2767069,0.160789 0.4375,0.162105 h 10.185 c 0.247696,0.0031 0.460386,-0.172393 0.5,-0.412632 z"
           id="path16"
           inkscape:connector-curvature="0"
           style="fill:url(#linearGradient-1);fill-rule:nonzero" />
      </g>
    </g>
  </g>
</svg>
