<?xml version="1.0" encoding="UTF-8" standalone="no"?>
<svg
   xmlns:dc="http://purl.org/dc/elements/1.1/"
   xmlns:cc="http://creativecommons.org/ns#"
   xmlns:rdf="http://www.w3.org/1999/02/22-rdf-syntax-ns#"
   xmlns:svg="http://www.w3.org/2000/svg"
   xmlns="http://www.w3.org/2000/svg"
   xmlns:sodipodi="http://sodipodi.sourceforge.net/DTD/sodipodi-0.dtd"
   xmlns:inkscape="http://www.inkscape.org/namespaces/inkscape"
   viewBox="0 0 200 200"
   version="1.1"
   id="svg25"
   sodipodi:docname="Amazon-EC2_AMI_light-bg.svg"
   width="200"
   height="200"
   inkscape:version="0.92.4 5da689c313, 2019-01-14">
  <metadata
     id="metadata29">
    <rdf:RDF>
      <cc:Work
         rdf:about="">
        <dc:format>image/svg+xml</dc:format>
        <dc:type
           rdf:resource="http://purl.org/dc/dcmitype/StillImage" />
        <dc:title>Amazon-EC2_AMI_light-bg</dc:title>
      </cc:Work>
    </rdf:RDF>
  </metadata>
  <sodipodi:namedview
     pagecolor="#ffffff"
     bordercolor="#666666"
     borderopacity="1"
     objecttolerance="10"
     gridtolerance="10"
     guidetolerance="10"
     inkscape:pageopacity="0"
     inkscape:pageshadow="2"
     inkscape:window-width="1920"
     inkscape:window-height="1052"
     id="namedview27"
     showgrid="false"
     inkscape:zoom="3.337544"
     inkscape:cx="92.999321"
     inkscape:cy="92.558608"
     inkscape:window-x="0"
     inkscape:window-y="0"
     inkscape:window-maximized="1"
     inkscape:current-layer="svg25" />
  <defs
     id="defs4">
    <style
       id="style2">.cls-1{fill:#d86613;}.cls-2{fill:none;}</style>
  </defs>
  <title
     id="title6">Amazon-EC2_AMI_light-bg</title>
  <g
     id="Working"
     transform="matrix(4,0,0,4,-0.09462066,0.09462066)">
    <path
       class="cls-1"
       d="M 42.05,48.5 H 8 A 6.45,6.45 0 0 1 1.5,42.05 V 8 A 6.45,6.45 0 0 1 8,1.5 H 42.1 A 6.45,6.45 0 0 1 48.5,8 v 34.1 a 6.45,6.45 0 0 1 -6.45,6.4 z M 8,3.5 A 4.46,4.46 0 0 0 3.5,8 V 42.1 A 4.46,4.46 0 0 0 8,46.5 h 34.1 a 4.46,4.46 0 0 0 4.45,-4.45 V 8 a 4.46,4.46 0 0 0 -4.5,-4.5 z"
       id="path8"
       inkscape:connector-curvature="0"
       style="fill:#d86613" />
    <path
       class="cls-1"
       d="M 41.88,22.25 H 8.13 a 1,1 0 0 1 -1,-1 V 10 a 1,1 0 0 1 1,-1 h 33.75 a 1,1 0 0 1 1,1 v 11.25 a 1,1 0 0 1 -1,1 z m -32.75,-2 H 40.88 V 11 H 9.13 Z"
       id="path10"
       inkscape:connector-curvature="0"
       style="fill:#d86613" />
    <path
       class="cls-1"
       d="M 41.88,41.94 H 8.13 a 1,1 0 0 1 -1,-1 V 26.88 a 1,1 0 0 1 1,-1 h 33.75 a 1,1 0 0 1 1,1 v 14.06 a 1,1 0 0 1 -1,1 z m -32.75,-2 H 40.88 V 27.88 H 9.13 Z"
       id="path12"
       inkscape:connector-curvature="0"
       style="fill:#d86613" />
    <rect
       class="cls-1"
       x="18.379999"
       y="10"
       width="2"
       height="11.25"
       id="rect14"
       style="fill:#d86613" />
    <rect
       class="cls-1"
       x="29.629999"
       y="10"
       width="2"
       height="11.25"
       id="rect16"
       style="fill:#d86613" />
    <rect
       class="cls-1"
       x="18.379999"
       y="26.879999"
       width="2"
       height="14.06"
       id="rect18"
       style="fill:#d86613" />
    <rect
       class="cls-1"
       x="29.629999"
       y="26.879999"
       width="2"
       height="14.06"
       id="rect20"
       style="fill:#d86613" />
    <rect
       class="cls-2"
       width="50"
       height="50"
       id="rect22"
       x="0"
       y="0"
       style="fill:none" />
  </g>
</svg>
