<?xml version="1.0" encoding="UTF-8" standalone="no"?>
<svg
   xmlns:dc="http://purl.org/dc/elements/1.1/"
   xmlns:cc="http://creativecommons.org/ns#"
   xmlns:rdf="http://www.w3.org/1999/02/22-rdf-syntax-ns#"
   xmlns:svg="http://www.w3.org/2000/svg"
   xmlns="http://www.w3.org/2000/svg"
   xmlns:sodipodi="http://sodipodi.sourceforge.net/DTD/sodipodi-0.dtd"
   xmlns:inkscape="http://www.inkscape.org/namespaces/inkscape"
   width="200"
   height="200"
   viewBox="0 0 200 200"
   version="1.1"
   id="svg4"
   sodipodi:docname="github.svg"
   style="fill:none"
   inkscape:version="0.92.4 5da689c313, 2019-01-14">
  <metadata
     id="metadata10">
    <rdf:RDF>
      <cc:Work
         rdf:about="">
        <dc:format>image/svg+xml</dc:format>
        <dc:type
           rdf:resource="http://purl.org/dc/dcmitype/StillImage" />
        <dc:title></dc:title>
      </cc:Work>
    </rdf:RDF>
  </metadata>
  <defs
     id="defs8" />
  <sodipodi:namedview
     pagecolor="#ffffff"
     bordercolor="#666666"
     borderopacity="1"
     objecttolerance="10"
     gridtolerance="10"
     guidetolerance="10"
     inkscape:pageopacity="0"
     inkscape:pageshadow="2"
     inkscape:window-width="1920"
     inkscape:window-height="1024"
     id="namedview6"
     showgrid="false"
     inkscape:zoom="2.6074563"
     inkscape:cx="84.968464"
     inkscape:cy="124.9416"
     inkscape:window-x="0"
     inkscape:window-y="28"
     inkscape:window-maximized="1"
     inkscape:current-layer="svg4" />
  <path
     d="m 100.4054,4.8219537 c -53.7472,0 -97.28,43.5328003 -97.28,97.2799963 0,43.04639 27.8464,79.40479 66.5152,92.29439 4.864,0.8512 6.688,-2.0672 6.688,-4.6208 0,-2.3104 -0.1216,-9.9712 -0.1216,-18.1184 -24.4416,4.4992 -30.7648,-5.9584 -32.7104,-11.4304 -1.0944,-2.7968 -5.8368,-11.4304 -9.9712,-13.7408 -3.4048,-1.824 -8.2688,-6.3232 -0.1216,-6.4448 7.6608,-0.1216 13.1328,7.0528 14.9568,9.9712 8.7552,14.7136 22.7392,10.5792 28.3328,8.0256 0.8512,-6.3232 3.4048,-10.5792 6.2016,-13.0112 -21.6448,-2.432 -44.2624,-10.8224 -44.2624,-48.031986 0,-10.5792 3.7696,-19.3344 9.9712,-26.144 -0.9728,-2.432 -4.3776,-12.4032 0.9728,-25.7792 0,0 8.1472,-2.5536 26.752,9.9712 7.7824,-2.1888 16.0512,-3.2832 24.32,-3.2832 8.2688,0 16.5376,1.0944 24.32,3.2832 18.6048,-12.6464 26.752,-9.9712 26.752,-9.9712 5.3504,13.376 1.9456,23.3472 0.9728,25.7792 6.2016,6.8096 9.9712,15.4432 9.9712,26.144 0,37.331186 -22.7392,45.599986 -44.384,48.031986 3.5264,3.04 6.5664,8.8768 6.5664,17.9968 0,13.0112 -0.1216,23.4688 -0.1216,26.752 0,2.5536 1.824,5.5936 6.688,4.6208 38.4256,-12.8896 66.272,-49.3696 66.272,-92.29439 0,-53.747196 -43.5328,-97.2799963 -97.28,-97.2799963 z"
     id="path2"
     inkscape:connector-curvature="0"
     style="clip-rule:evenodd;fill:#1b1f23;fill-rule:evenodd;stroke-width:12.15999985" />
</svg>
