<?xml version="1.0" encoding="UTF-8" standalone="no"?>
<!-- Generator: Adobe Illustrator 19.1.0, SVG Export Plug-In . SVG Version: 6.00 Build 0)  -->

<svg
   xmlns:dc="http://purl.org/dc/elements/1.1/"
   xmlns:cc="http://creativecommons.org/ns#"
   xmlns:rdf="http://www.w3.org/1999/02/22-rdf-syntax-ns#"
   xmlns:svg="http://www.w3.org/2000/svg"
   xmlns="http://www.w3.org/2000/svg"
   xmlns:sodipodi="http://sodipodi.sourceforge.net/DTD/sodipodi-0.dtd"
   xmlns:inkscape="http://www.inkscape.org/namespaces/inkscape"
   version="1.1"
   id="Layer_1"
   x="0px"
   y="0px"
   width="200"
   height="200"
   viewBox="0 0 200 200"
   xml:space="preserve"
   sodipodi:docname="team-city.svg"
   inkscape:version="0.92.4 5da689c313, 2019-01-14"><metadata
   id="metadata95"><rdf:RDF><cc:Work
       rdf:about=""><dc:format>image/svg+xml</dc:format><dc:type
         rdf:resource="http://purl.org/dc/dcmitype/StillImage" /><dc:title></dc:title></cc:Work></rdf:RDF></metadata><defs
   id="defs93" /><sodipodi:namedview
   pagecolor="#ffffff"
   bordercolor="#666666"
   borderopacity="1"
   objecttolerance="10"
   gridtolerance="10"
   guidetolerance="10"
   inkscape:pageopacity="0"
   inkscape:pageshadow="2"
   inkscape:window-width="1920"
   inkscape:window-height="1024"
   id="namedview91"
   showgrid="false"
   inkscape:zoom="2.38396"
   inkscape:cx="-51.303668"
   inkscape:cy="91.545221"
   inkscape:window-x="0"
   inkscape:window-y="28"
   inkscape:window-maximized="1"
   inkscape:current-layer="Layer_1" />
<g
   id="g88"
   transform="matrix(2.85,0,0,2.85,0.6732517,0.78866741)">
	<g
   id="g76">
		<linearGradient
   id="SVGID_1_"
   gradientUnits="userSpaceOnUse"
   x1="1.7738"
   y1="31.2729"
   x2="40.166199"
   y2="31.2729">
			<stop
   offset="0"
   style="stop-color:#905CFB"
   id="stop2" />
			<stop
   offset="6.772543e-002"
   style="stop-color:#776CF9"
   id="stop4" />
			<stop
   offset="0.1729"
   style="stop-color:#5681F7"
   id="stop6" />
			<stop
   offset="0.2865"
   style="stop-color:#3B92F5"
   id="stop8" />
			<stop
   offset="0.4097"
   style="stop-color:#269FF4"
   id="stop10" />
			<stop
   offset="0.5474"
   style="stop-color:#17A9F3"
   id="stop12" />
			<stop
   offset="0.7111"
   style="stop-color:#0FAEF2"
   id="stop14" />
			<stop
   offset="0.9677"
   style="stop-color:#0CB0F2"
   id="stop16" />
		</linearGradient>
		<path
   style="fill:url(#SVGID_1_)"
   d="m 39.7,47.9 -6.1,-34 C 33.2,11.5 32.4,9.1 30.9,6.8 28.9,3.6 25.7,1.4 22.1,0.5 7.9,-2.9 -2.6,11.3 3.6,23.9 c 0,0 0,0 0,0 l 14.8,31.7 c 0.4,1 1,2 1.7,2.9 1.2,1.6 2.8,2.8 4.7,3.4 9.6,3 17.3,-5.5 14.9,-14 z"
   id="path19"
   inkscape:connector-curvature="0" />
		<linearGradient
   id="SVGID_2_"
   gradientUnits="userSpaceOnUse"
   x1="5.3112998"
   y1="9.6690998"
   x2="69.227798"
   y2="43.866402">
			<stop
   offset="0"
   style="stop-color:#905CFB"
   id="stop21" />
			<stop
   offset="6.772543e-002"
   style="stop-color:#776CF9"
   id="stop23" />
			<stop
   offset="0.1729"
   style="stop-color:#5681F7"
   id="stop25" />
			<stop
   offset="0.2865"
   style="stop-color:#3B92F5"
   id="stop27" />
			<stop
   offset="0.4097"
   style="stop-color:#269FF4"
   id="stop29" />
			<stop
   offset="0.5474"
   style="stop-color:#17A9F3"
   id="stop31" />
			<stop
   offset="0.7111"
   style="stop-color:#0FAEF2"
   id="stop33" />
			<stop
   offset="0.9677"
   style="stop-color:#0CB0F2"
   id="stop35" />
		</linearGradient>
		<path
   style="fill:url(#SVGID_2_)"
   d="M 67.4,26.5 C 66,24.3 64,22.6 61.7,21.6 L 25.5,1.7 v 0 C 24.5,1.2 23.4,0.7 22.2,0.4 6.7,-3.2 -4.4,13.8 5.5,27 c 1.5,2 3.6,3.6 6,4.5 L 48,47.9 c 0.8,0.5 1.6,0.8 2.5,1.1 14,4.4 24.6,-10.4 16.9,-22.5 z"
   id="path38"
   inkscape:connector-curvature="0" />
		<linearGradient
   id="SVGID_3_"
   gradientUnits="userSpaceOnUse"
   x1="-19.2836"
   y1="70.819801"
   x2="55.983299"
   y2="33.186298">
			<stop
   offset="0"
   style="stop-color:#3BEA62"
   id="stop40" />
			<stop
   offset="0.117"
   style="stop-color:#31DE80"
   id="stop42" />
			<stop
   offset="0.3025"
   style="stop-color:#24CEA8"
   id="stop44" />
			<stop
   offset="0.4844"
   style="stop-color:#1AC1C9"
   id="stop46" />
			<stop
   offset="0.6592"
   style="stop-color:#12B7DF"
   id="stop48" />
			<stop
   offset="0.8238"
   style="stop-color:#0EB2ED"
   id="stop50" />
			<stop
   offset="0.9677"
   style="stop-color:#0CB0F2"
   id="stop52" />
		</linearGradient>
		<path
   style="fill:url(#SVGID_3_)"
   d="M 67.4,26.5 C 65.6,23.7 62.8,21.7 59.5,20.9 56,20.1 52.7,20.4 49.9,21.6 L 11.4,36.1 c 0,0 -0.2,0.1 -0.6,0.4 C 0.9,40.4 -4,53.3 4,64 c 1.8,2.4 4.3,4.2 7.1,5 5.3,1.6 10.1,1 14,-1.1 0,0 0.1,0 0.1,0 L 62.8,47.8 c 0,0 0,0 0.1,-0.1 6.6,-3.8 9.7,-13.1 4.5,-21.2 z"
   id="path55"
   inkscape:connector-curvature="0" />
		<linearGradient
   id="SVGID_4_"
   gradientUnits="userSpaceOnUse"
   x1="38.943901"
   y1="5.8502998"
   x2="5.4232001"
   y2="77.5093">
			<stop
   offset="0"
   style="stop-color:#3BEA62"
   id="stop57" />
			<stop
   offset="9.397750e-002"
   style="stop-color:#2FDB87"
   id="stop59" />
			<stop
   offset="0.196"
   style="stop-color:#24CEA8"
   id="stop61" />
			<stop
   offset="0.3063"
   style="stop-color:#1BC3C3"
   id="stop63" />
			<stop
   offset="0.4259"
   style="stop-color:#14BAD8"
   id="stop65" />
			<stop
   offset="0.5596"
   style="stop-color:#10B5E7"
   id="stop67" />
			<stop
   offset="0.7185"
   style="stop-color:#0DB1EF"
   id="stop69" />
			<stop
   offset="0.9677"
   style="stop-color:#0CB0F2"
   id="stop71" />
		</linearGradient>
		<path
   style="fill:url(#SVGID_4_)"
   d="m 50.3,12.8 c 1.2,-2.7 1.1,-6 -0.9,-9 C 48.3,2 46.5,0.8 44.5,0.3 40,-0.8 36.2,1.3 34.4,4.5 L 3.5,42 c 0,0 0,0 0,0.1 -4.4,5.8 -5.1,14.4 0.5,21.9 1.8,2.4 4.3,4.2 7.1,5 10.5,3.3 19.3,-2.5 22.1,-10.8 z"
   id="path74"
   inkscape:connector-curvature="0" />
	</g>
	<g
   id="g86">
		<rect
   x="13.4"
   y="13.4"
   style="fill:#000000"
   width="43.200001"
   height="43.200001"
   id="rect78" />
		<rect
   x="17.5"
   y="48.5"
   style="fill:#ffffff"
   width="16.200001"
   height="2.7"
   id="rect80" />
		<polygon
   style="fill:#ffffff"
   points="26.8,37 22.9,37 22.9,22.7 17.5,22.7 17.5,19.1 32.3,19.1 32.3,22.7 26.8,22.7 "
   id="polygon82" />
		<path
   style="fill:#ffffff"
   d="m 32.5,28.1 v 0 c 0,-5.1 3.8,-9.3 9.3,-9.3 3.4,0 5.4,1.1 7.1,2.8 l -2.5,2.9 c -1.4,-1.3 -2.8,-2 -4.6,-2 -3,0 -5.2,2.5 -5.2,5.6 V 28 c 0,3.1 2.1,5.6 5.2,5.6 2,0 3.3,-0.8 4.7,-2.1 L 49,34 c -1.8,2 -3.9,3.2 -7.3,3.2 -5.3,0.1 -9.2,-4 -9.2,-9.1"
   id="path84"
   inkscape:connector-curvature="0" />
	</g>
</g>
</svg>